PathFileType	4	(x/y/z)	S10_PSF_T07
DataRate	CameraRate	NumFrames	NumMarkers	Units	OrigDataRate	OrigDataStartFrame	OrigNumFrames
240	240	4	51	mm	240	108	431
Frame#	Time	Sternum			R.Acromium			L.Acromium			Top.Head			R.ASIS			L.ASIS			R.PSIS			L.PSIS			R.Great.Tro			L.Great.Tro			R.Iliac.Crest			L.Iliac.Crest			V.Sacral			R.Thigh.Upper.Post			R.Thigh.Lower.Ant			R.Thigh.Lower.Post			R.Thigh.Upper.Ant			R.Knee.Lat			R.Knee.Med			R.Shank.Upper.Post			R.Shank.Lower.Ant			R.Shank.Lower.Post			R.Shank.Upper.Ant			R.Ankle.Lat			R.Ankle.Med			R.Heel.Upper			R.Heel.Med			R.Heel.Lat			R.Toe.Lat			R.Toe.Med			R.Toe.Tip			L.Thigh.Upper.Post			L.Thigh.Lower.Ant			L.Thigh.Lower.Post			L.Thigh.Upper.Ant			L.Knee.Lat			L.Knee.Med			L.Shank.Upper.Post			L.Shank.Lower.Ant			L.Shank.Lower.Post			L.Shank.Upper.Ant			L.Ankle.Lat			L.Ankle.Med			L.Heel.Upper			L.Heel.Med			L.Heel.Lat			L.Toe.Lat			L.Toe.Med			L.Toe.Tip			Cervical.Spine			Back			
		X1	Y1	Z1	X2	Y2	Z2	X3	Y3	Z3	X4	Y4	Z4	X5	Y5	Z5	X6	Y6	Z6	X7	Y7	Z7	X8	Y8	Z8	X9	Y9	Z9	X10	Y10	Z10	X11	Y11	Z11	X12	Y12	Z12	X13	Y13	Z13	X14	Y14	Z14	X15	Y15	Z15	X16	Y16	Z16	X17	Y17	Z17	X18	Y18	Z18	X19	Y19	Z19	X20	Y20	Z20	X21	Y21	Z21	X22	Y22	Z22	X23	Y23	Z23	X24	Y24	Z24	X25	Y25	Z25	X26	Y26	Z26	X27	Y27	Z27	X28	Y28	Z28	X29	Y29	Z29	X30	Y30	Z30	X31	Y31	Z31	X32	Y32	Z32	X33	Y33	Z33	X34	Y34	Z34	X35	Y35	Z35	X36	Y36	Z36	X37	Y37	Z37	X38	Y38	Z38	X39	Y39	Z39	X40	Y40	Z40	X41	Y41	Z41	X42	Y42	Z42	X43	Y43	Z43	X44	Y44	Z44	X45	Y45	Z45	X46	Y46	Z46	X47	Y47	Z47	X48	Y48	Z48	X49	Y49	Z49	X50	Y50	Z50	X51	Y51	Z51	

108	0.44583	-757.93	1268.9	321.28	-895.7	1425.2	464.02	-857.44	1457.1	168.1	-914.63	1744	329.08	-814.37	1006.2	419.28	-812.24	1016.2	190.84	-1015.3	1020.2	335.57	-1009.6	1028.9	255.34	-874.5	927.02	494.19	-884.06	954.08	133.97	-913.22	1082.8	464.69	-881.37	1090.1	164.32	-1034.7	990.72	298.29	-782.31	733.08	495.85	-701.72	683.67	455.69	-751.69	648.95	488.57	-732.05	769.9	457.04	-708.42	530.79	448.94	-706.59	532.99	320.45	-722.66	299.22	449.87	-642.87	255.39	445.16	-702.08	227.69	445.83	-658.31	330.94	448.14	-652.11	122.86	432.3	-635.67	138.11	355.18	-690.73	62.257	377.96	-671.2	40.455	351.04	-683.08	38.671	411.8	-520.85	71.174	475.58	-485.58	90.749	371.47	-440.17	121.92	418.96	-984.54	698.97	148.51	-934.39	603.25	174.11	-1006.9	608.52	170.8	-906.52	687.02	150.27	-1000.3	513.04	182.39	-984.19	511.5	311.02	-1100.8	316.23	194.85	-1054.9	216.82	215.21	-1114.1	238.57	211.89	-1044.3	291.59	200.07	-1108.8	111.58	229.22	-1089.3	125.74	317.95	-1178.9	85.113	280.91	-1167.7	50.28	311.45	-1175.4	56.952	247.75	-1002.5	41.735	197.93	-969.2	43.316	305.94	-915.73	50.642	254.04	-956.51	1490.5	314.46	-1040.4	1285.6	287.63
109	0.45	-752.57	1267.5	321.48	-890.37	1424	464.15	-851.6	1456	168.37	-909.43	1742.7	329.43	-809.01	1005	419.38	-807.1	1014.9	190.96	-1010	1019	335.55	-1004.3	1027.8	255.32	-869.43	925.64	494.19	-878.86	953.08	133.88	-907.97	1081.6	464.7	-875.96	1088.9	164.31	-1029.5	989.66	298.24	-778.32	731.17	495.92	-697.93	681.41	455.87	-748.18	646.89	488.51	-727.79	767.8	457.33	-704.29	529.26	448.56	-702.89	531.06	319.91	-713.4	297.6	450.04	-632.61	255.58	445.09	-691.18	226.49	445.98	-649.79	330.8	448.03	-638.65	122.66	432.57	-622.82	138.17	355.37	-676.11	61.024	378.47	-655.97	39.552	351.51	-667.67	37.643	412.34	-505.94	74.126	475.65	-471.47	94.246	371.35	-426.63	126.61	418.67	-980.86	698.8	148.5	-931.33	602.72	173.92	-1003.3	608.71	170.42	-903.01	686.28	150.16	-997.84	512.86	182.26	-981.57	511.2	310.9	-1099.5	316.48	194.86	-1054	216.86	215.13	-1113.4	238.78	212.08	-1043	291.57	199.98	-1108.5	111.88	229.21	-1088.9	126	317.91	-1178.8	85.542	280.91	-1167.5	50.678	311.46	-1175.3	57.322	247.77	-1002.4	41.7	197.9	-969.16	43.272	305.92	-915.67	50.487	254.01	-950.9	1489.3	314.43	-1034.9	1284.5	287.46
110	0.45417	-747.19	1266	321.7	-885.03	1422.7	464.3	-845.75	1454.9	168.65	-904.22	1741.3	329.8	-803.64	1003.7	419.48	-801.89	1013.6	191.06	-1004.6	1017.9	335.53	-998.9	1026.7	255.31	-864.34	924.26	494.21	-873.64	952.07	133.79	-902.72	1080.4	464.72	-870.57	1087.7	164.31	-1024.2	988.58	298.21	-774.27	729.27	496	-694.09	679.15	456.05	-744.62	644.84	488.46	-723.47	765.71	457.61	-700.14	527.73	448.22	-699.26	529.12	319.39	-704.31	296.08	450.22	-622.61	255.81	445.01	-680.53	225.41	446.11	-641.46	330.68	447.92	-625.57	122.58	432.79	-610.35	138.34	355.52	-661.91	59.968	378.93	-641.18	38.815	351.93	-652.71	36.795	412.83	-491.51	77.109	475.66	-457.85	97.733	371.18	-413.58	131.24	418.33	-977.15	698.61	148.52	-928.2	602.18	173.72	-999.71	608.9	170.02	-899.47	685.53	150.04	-995.26	512.67	182.13	-978.87	510.87	310.77	-1098.2	316.73	194.86	-1053.1	216.91	215.05	-1112.7	239.01	212.21	-1041.7	291.54	199.88	-1108.1	112.19	229.18	-1088.5	126.28	317.85	-1178.6	85.999	280.87	-1167.4	51.111	311.45	-1175.2	57.711	247.75	-1002.4	41.661	197.85	-969.12	43.237	305.89	-915.61	50.335	253.99	-945.28	1488.2	314.42	-1029.5	1283.4	287.31
111	0.45833	-741.81	1264.6	321.94	-879.68	1421.5	464.46	-839.9	1453.7	168.94	-899	1740	330.17	-798.26	1002.4	419.58	-796.61	1012.3	191.15	-999.31	1016.7	335.53	-993.53	1025.6	255.31	-859.2	922.87	494.25	-868.41	951.05	133.7	-897.46	1079.1	464.74	-865.19	1086.5	164.31	-1018.8	987.47	298.18	-770.15	727.39	496.09	-690.18	676.91	456.22	-740.99	642.81	488.43	-719.09	763.64	457.89	-695.95	526.23	447.9	-695.67	527.17	318.89	-695.42	294.66	450.4	-612.88	256.08	444.89	-670.16	224.43	446.23	-633.31	330.58	447.79	-612.91	122.6	432.96	-598.3	138.59	355.64	-648.17	59.07	379.34	-626.88	38.225	352.3	-638.24	36.107	413.26	-477.59	80.081	475.61	-444.74	101.17	370.95	-401.02	135.75	417.93	-973.4	698.4	148.55	-925.01	601.64	173.5	-995.99	609.08	169.61	-895.89	684.77	149.93	-992.59	512.46	182	-976.07	510.51	310.64	-1096.8	316.99	194.86	-1052.1	216.96	214.95	-1111.9	239.29	212.29	-1040.3	291.51	199.77	-1107.8	112.52	229.12	-1088	126.58	317.77	-1178.5	86.487	280.8	-1167.3	51.583	311.42	-1175	58.12	247.72	-1002.3	41.618	197.8	-969.08	43.213	305.85	-915.56	50.182	253.96	-939.64	1487	314.43	-1024	1282.3	287.18
